<?xml version="1.0" encoding="UTF-8"?>
<svg class="Logo" id="Layer_1" data-name="Layer 1" xmlns="http://www.w3.org/2000/svg" viewBox="0 0 1367 766.99">
  <defs>
    <style>
   .cls-2 {
        fill:white;
      }

      .cls-3 {
        fill:  transparent;
      }
    </style>
  </defs>
  <g id="Layer_1-2" data-name="Layer 1-2">
    <g>
      <g>
        <g>
          <path class="cls-2" d="M540.42,301c0-7.67,0-15.33,.96-22.04,0-1.92,.96-1.92,1.92-2.87,33.54-15.33,54.62-42.17,69-75.71,4.79-11.5,7.67-22.04,8.62-34.5,.96-7.67,0-15.33-2.87-23-4.79-10.54-16.29-15.33-28.75-12.46-16.29,3.83-26.83,15.33-36.42,28.75-11.5,17.25-16.29,37.37-20.12,56.54-6.71,31.62-8.62,63.25-10.54,94.87-1.92,26.83-3.83,53.67-7.67,80.5-.96,4.79-1.92,9.58-2.87,14.37-.96,4.79,0,4.79,3.83,3.83,16.29-3.83,31.62-8.62,46-16.29,31.62-15.33,59.42-35.46,84.33-58.46,45.04-43.12,81.46-92,105.41-149.5,13.42-31.62,21.08-65.17,18.21-99.66,0-3.83,0-8.62-.96-12.46-.96-4.79,.96-6.71,4.79-8.62,8.62-3.83,18.21-4.79,27.79-4.79,6.71,0,13.42,.96,21.08,2.87,14.37,2.87,24.92,12.46,32.58,23.96,.96,.96,1.92,2.87,.96,3.83s-2.87,0-3.83,0c-5.75-1.92-11.5-3.83-18.21-2.87-13.42,.96-22.04,8.62-24.92,23-2.87,10.54-2.87,22.04-2.87,33.54,.96,20.12,3.83,40.25,3.83,60.37,0,5.75-1.92,11.5-4.79,17.25-43.12,71.87-98.71,130.33-172.5,171.54-39.29,22.04-79.54,37.37-123.62,47.92-3.83,.96-5.75,1.92-6.71,5.75-14.37,56.54-39.29,107.33-77.62,151.41-25.87,30.67-56.54,54.62-93.92,69.96-18.21,7.67-37.37,11.5-57.5,6.71-26.83-6.71-42.17-24.92-49.83-50.79-14.37-48.87,8.62-104.46,53.67-132.25,17.25-10.54,35.46-18.21,56.54-17.25,5.75,0,10.54,.96,16.29,1.92,4.79,.96,6.71,3.83,6.71,7.67,.96,13.42-4.79,24.92-14.37,33.54-3.83,3.83-7.67,3.83-12.46,0-4.79-3.83-9.58-7.67-14.37-9.58-18.21-9.58-35.46-5.75-48.87,9.58-13.42,15.33-20.12,33.54-24.92,52.71-3.83,17.25-4.79,34.5-3.83,51.75,.96,10.54,2.87,21.08,8.62,30.67,6.71,10.54,16.29,13.42,27.79,10.54,10.54-2.87,20.12-9.58,27.79-18.21,31.62-31.62,56.54-68.04,73.79-110.21,22.04-55.58,39.29-113.08,47.92-172.5,4.79-33.54,10.54-67.08,20.12-99.66,12.46-42.17,28.75-82.42,56.54-116.91,17.25-21.08,36.42-39.29,63.25-46.96,23-6.71,44.08-3.83,61.33,14.37,10.54,10.54,14.37,23.96,15.33,38.33,1.92,25.87-6.71,48.87-18.21,71.87-18.21,35.46-46,61.33-82.42,77.62q1.92,0,.96,0h0Z"/>
          <path class="cls-2" d="M1056.95,437.08c-2.87-2.87-6.71-5.75-9.58-8.62s-3.83-2.87-5.75,.96c-10.54,24.92-22.04,49.83-34.5,74.75-11.5,21.08-23,42.17-39.29,59.42-5.75,6.71-12.46,12.46-20.12,16.29-15.33,7.67-29.71,1.92-36.42-13.42-3.83-7.67-3.83-15.33-3.83-23.96,0-21.08,5.75-41.21,12.46-60.37,7.67-21.08,15.33-41.21,29.71-58.46,9.58-11.5,21.08-22.04,36.42-25.87,6.71-1.92,13.42-.96,19.17,0,1.92,0,2.87,.96,3.83-1.92,9.58-23.96,19.17-48.87,26.83-73.79-3.83,3.83-7.67,8.62-11.5,12.46-9.58,10.54-21.08,21.08-33.54,27.79-27.79,17.25-56.54,13.42-80.5-9.58-14.37-13.42-23-30.67-29.71-48.87-1.92-4.79-3.83-9.58-6.71-15.33-.96,8.62-.96,16.29-2.87,24.92-6.71,46-15.33,92-40.25,132.25-15.33,25.87-37.37,45.04-67.08,53.67-.96,0-1.92,0-2.87,.96-.96,0-1.92,.96-1.92-.96,32.58-10.54,52.71-34.5,66.12-65.17,8.62-20.12,13.42-41.21,17.25-63.25,5.75-38.33,4.79-76.67,4.79-115,0-12.46-1.92-24.92,0-36.42,.96-8.62,4.79-15.33,13.42-19.17,5.75-2.87,10.54-1.92,16.29,.96,7.67,5.75,12.46,13.42,16.29,21.08,9.58,17.25,15.33,36.42,23,54.62,4.79,12.46,10.54,24.92,18.21,36.42,12.46,18.21,24.92,20.12,42.17,6.71,17.25-13.42,30.67-30.67,42.17-48.87,27.79-41.21,50.79-86.25,70.92-132.25,5.75-13.42,11.5-26.83,18.21-39.29,4.79-8.62,12.46-12.46,22.04-11.5,8.62,.96,14.37,6.71,16.29,15.33,1.92,6.71,.96,12.46-.96,19.17-12.46,43.12-26.83,86.25-40.25,128.41-18.21,55.58-37.37,111.16-59.42,164.83-.96,2.87-.96,3.83,.96,5.75,3.83,3.83,6.71,7.67,10.54,12.46q.96,2.87,0,2.87h0Z"/>
          <path class="cls-2" d="M561.5,456.25c1.92,3.83,.96,8.62,.96,12.46-.96,44.08,4.79,87.21,22.04,127.46,4.79,12.46,11.5,23,21.08,32.58,17.25,18.21,40.25,23,63.25,12.46,20.12-9.58,35.46-23.96,50.79-40.25,2.87-2.87,5.75-5.75,7.67-9.58,1.92-2.87,4.79-2.87,7.67-1.92,16.29,5.75,28.75,15.33,37.37,29.71,2.87,4.79,2.87,9.58-.96,14.37-15.33,20.12-34.5,35.46-59.42,41.21-22.04,4.79-43.12,.96-63.25-9.58-27.79-14.37-48.87-36.42-66.12-62.29-19.17-29.71-31.62-62.29-38.33-96.79-1.92-8.62-1.92-17.25-2.87-25.87,0-1.92,0-2.87,.96-3.83,5.75-6.71,12.46-13.42,19.17-20.12h0Z"/>
          <path class="cls-2" d="M844.21,140.96c0-6.71,4.79-11.5,10.54-11.5s11.5,5.75,11.5,11.5-4.79,11.5-11.5,11.5c-5.75,0-10.54-4.79-10.54-11.5h0Z"/>
        </g>
        <path class="cls-3" d="M935.25,547.29c-.96-4.79-1.92-8.62-1.92-12.46,.96-32.58,6.71-64.21,21.08-93.91,6.71-12.46,14.37-23.96,27.79-31.62,5.75-2.87,12.46-4.79,19.17-3.83,2.87,0,2.87,.96,1.92,2.87-17.25,41.21-33.54,83.37-55.58,121.71-2.88,6.71-7.67,11.5-12.46,17.25h0Z"/>
      </g>
    </g>
  </g>
</svg>